<?xml version="1.0" encoding="UTF-8" standalone="no"?>
<!DOCTYPE svg PUBLIC "-//W3C//DTD SVG 1.1//EN"
 "http://www.w3.org/Graphics/SVG/1.1/DTD/svg11.dtd">
<!-- Generated by graphviz version 9.0.0 (0)
 -->
<!-- Pages: 1 -->
<svg width="1916pt" height="476pt"
 viewBox="0.00 0.00 1916.08 476.00" xmlns="http://www.w3.org/2000/svg" xmlns:xlink="http://www.w3.org/1999/xlink">
<g id="graph0" class="graph" transform="scale(1 1) rotate(0) translate(4 472)">
<polygon fill="white" stroke="none" points="-4,4 -4,-472 1912.08,-472 1912.08,4 -4,4"/>
<!-- [root] aws_default_route_table.main_vpc_default (expand) -->
<g id="node1" class="node">
<title>[root] aws_default_route_table.main_vpc_default (expand)</title>
<polygon fill="none" stroke="black" points="1356.58,-324 1039.83,-324 1039.83,-288 1356.58,-288 1356.58,-324"/>
<text text-anchor="middle" x="1198.21" y="-301.32" font-family="Times,serif" font-size="14.00">aws_default_route_table.main_vpc_default</text>
</g>
<!-- [root] aws_internet_gateway.igw_infra (expand) -->
<g id="node5" class="node">
<title>[root] aws_internet_gateway.igw_infra (expand)</title>
<polygon fill="none" stroke="black" points="1286.83,-252 1043.58,-252 1043.58,-216 1286.83,-216 1286.83,-252"/>
<text text-anchor="middle" x="1165.21" y="-229.32" font-family="Times,serif" font-size="14.00">aws_internet_gateway.igw_infra</text>
</g>
<!-- [root] aws_default_route_table.main_vpc_default (expand)&#45;&gt;[root] aws_internet_gateway.igw_infra (expand) -->
<g id="edge1" class="edge">
<title>[root] aws_default_route_table.main_vpc_default (expand)&#45;&gt;[root] aws_internet_gateway.igw_infra (expand)</title>
<path fill="none" stroke="black" d="M1190.05,-287.7C1186.45,-280.07 1182.14,-270.92 1178.12,-262.4"/>
<polygon fill="black" stroke="black" points="1181.34,-261.03 1173.91,-253.47 1175.01,-264.01 1181.34,-261.03"/>
</g>
<!-- [root] aws_instance.private_vm_1 (expand) -->
<g id="node2" class="node">
<title>[root] aws_instance.private_vm_1 (expand)</title>
<polygon fill="none" stroke="black" points="1021.33,-324 811.08,-324 811.08,-288 1021.33,-288 1021.33,-324"/>
<text text-anchor="middle" x="916.21" y="-301.32" font-family="Times,serif" font-size="14.00">aws_instance.private_vm_1</text>
</g>
<!-- [root] aws_security_group.infra_sec_group (expand) -->
<g id="node7" class="node">
<title>[root] aws_security_group.infra_sec_group (expand)</title>
<polygon fill="none" stroke="black" points="805.21,-252 531.21,-252 531.21,-216 805.21,-216 805.21,-252"/>
<text text-anchor="middle" x="668.21" y="-229.32" font-family="Times,serif" font-size="14.00">aws_security_group.infra_sec_group</text>
</g>
<!-- [root] aws_instance.private_vm_1 (expand)&#45;&gt;[root] aws_security_group.infra_sec_group (expand) -->
<g id="edge2" class="edge">
<title>[root] aws_instance.private_vm_1 (expand)&#45;&gt;[root] aws_security_group.infra_sec_group (expand)</title>
<path fill="none" stroke="black" d="M854.26,-287.52C819.81,-277.79 776.74,-265.64 740.72,-255.47"/>
<polygon fill="black" stroke="black" points="741.82,-252.14 731.24,-252.79 739.92,-258.88 741.82,-252.14"/>
</g>
<!-- [root] aws_subnet.private_subnet (expand) -->
<g id="node8" class="node">
<title>[root] aws_subnet.private_subnet (expand)</title>
<polygon fill="none" stroke="black" points="1515.33,-252 1305.08,-252 1305.08,-216 1515.33,-216 1515.33,-252"/>
<text text-anchor="middle" x="1410.21" y="-229.32" font-family="Times,serif" font-size="14.00">aws_subnet.private_subnet</text>
</g>
<!-- [root] aws_instance.private_vm_1 (expand)&#45;&gt;[root] aws_subnet.private_subnet (expand) -->
<g id="edge3" class="edge">
<title>[root] aws_instance.private_vm_1 (expand)&#45;&gt;[root] aws_subnet.private_subnet (expand)</title>
<path fill="none" stroke="black" d="M1021.79,-289.34C1024.96,-288.89 1028.11,-288.44 1031.21,-288 1145.32,-271.81 1176.66,-268.93 1293.43,-252.38"/>
<polygon fill="black" stroke="black" points="1293.72,-255.88 1303.13,-251.01 1292.73,-248.95 1293.72,-255.88"/>
</g>
<!-- [root] aws_subnet.public_subnet (expand) -->
<g id="node9" class="node">
<title>[root] aws_subnet.public_subnet (expand)</title>
<polygon fill="none" stroke="black" points="1025.58,-252 822.83,-252 822.83,-216 1025.58,-216 1025.58,-252"/>
<text text-anchor="middle" x="924.21" y="-229.32" font-family="Times,serif" font-size="14.00">aws_subnet.public_subnet</text>
</g>
<!-- [root] aws_instance.private_vm_1 (expand)&#45;&gt;[root] aws_subnet.public_subnet (expand) -->
<g id="edge4" class="edge">
<title>[root] aws_instance.private_vm_1 (expand)&#45;&gt;[root] aws_subnet.public_subnet (expand)</title>
<path fill="none" stroke="black" d="M918.18,-287.7C919.02,-280.41 920.01,-271.73 920.94,-263.54"/>
<polygon fill="black" stroke="black" points="924.42,-263.94 922.08,-253.61 917.47,-263.15 924.42,-263.94"/>
</g>
<!-- [root] data.aws_key_pair.key (expand) -->
<g id="node11" class="node">
<title>[root] data.aws_key_pair.key (expand)</title>
<polygon fill="none" stroke="black" points="513.33,-252 339.08,-252 339.08,-216 513.33,-216 513.33,-252"/>
<text text-anchor="middle" x="426.21" y="-229.32" font-family="Times,serif" font-size="14.00">data.aws_key_pair.key</text>
</g>
<!-- [root] aws_instance.private_vm_1 (expand)&#45;&gt;[root] data.aws_key_pair.key (expand) -->
<g id="edge5" class="edge">
<title>[root] aws_instance.private_vm_1 (expand)&#45;&gt;[root] data.aws_key_pair.key (expand)</title>
<path fill="none" stroke="black" d="M810.87,-290.4C804.89,-289.59 798.97,-288.78 793.21,-288 676.33,-272.16 644.14,-270.67 524.86,-252.38"/>
<polygon fill="black" stroke="black" points="525.73,-248.97 515.31,-250.91 524.66,-255.89 525.73,-248.97"/>
</g>
<!-- [root] aws_instance.public_vm&#45;2 (expand) -->
<g id="node3" class="node">
<title>[root] aws_instance.public_vm&#45;2 (expand)</title>
<polygon fill="none" stroke="black" points="784.46,-324 583.96,-324 583.96,-288 784.46,-288 784.46,-324"/>
<text text-anchor="middle" x="684.21" y="-301.32" font-family="Times,serif" font-size="14.00">aws_instance.public_vm&#45;2</text>
</g>
<!-- [root] aws_instance.public_vm&#45;2 (expand)&#45;&gt;[root] aws_security_group.infra_sec_group (expand) -->
<g id="edge6" class="edge">
<title>[root] aws_instance.public_vm&#45;2 (expand)&#45;&gt;[root] aws_security_group.infra_sec_group (expand)</title>
<path fill="none" stroke="black" d="M680.25,-287.7C678.56,-280.32 676.55,-271.52 674.66,-263.25"/>
<polygon fill="black" stroke="black" points="678.09,-262.55 672.45,-253.58 671.27,-264.11 678.09,-262.55"/>
</g>
<!-- [root] aws_instance.public_vm&#45;2 (expand)&#45;&gt;[root] aws_subnet.public_subnet (expand) -->
<g id="edge7" class="edge">
<title>[root] aws_instance.public_vm&#45;2 (expand)&#45;&gt;[root] aws_subnet.public_subnet (expand)</title>
<path fill="none" stroke="black" d="M744.15,-287.52C777.35,-277.83 818.81,-265.74 853.58,-255.6"/>
<polygon fill="black" stroke="black" points="854.54,-258.97 863.16,-252.81 852.58,-252.25 854.54,-258.97"/>
</g>
<!-- [root] aws_instance.public_vm&#45;2 (expand)&#45;&gt;[root] data.aws_key_pair.key (expand) -->
<g id="edge8" class="edge">
<title>[root] aws_instance.public_vm&#45;2 (expand)&#45;&gt;[root] data.aws_key_pair.key (expand)</title>
<path fill="none" stroke="black" d="M619.77,-287.52C583.77,-277.75 538.73,-265.53 501.16,-255.34"/>
<polygon fill="black" stroke="black" points="502.3,-252.02 491.73,-252.78 500.46,-258.77 502.3,-252.02"/>
</g>
<!-- [root] aws_instance.public_vm_1 (expand) -->
<g id="node4" class="node">
<title>[root] aws_instance.public_vm_1 (expand)</title>
<polygon fill="none" stroke="black" points="565.58,-324 362.83,-324 362.83,-288 565.58,-288 565.58,-324"/>
<text text-anchor="middle" x="464.21" y="-301.32" font-family="Times,serif" font-size="14.00">aws_instance.public_vm_1</text>
</g>
<!-- [root] aws_instance.public_vm_1 (expand)&#45;&gt;[root] aws_security_group.infra_sec_group (expand) -->
<g id="edge9" class="edge">
<title>[root] aws_instance.public_vm_1 (expand)&#45;&gt;[root] aws_security_group.infra_sec_group (expand)</title>
<path fill="none" stroke="black" d="M515.16,-287.52C543.01,-277.96 577.71,-266.05 607.02,-256"/>
<polygon fill="black" stroke="black" points="607.8,-259.43 616.12,-252.87 605.52,-252.81 607.8,-259.43"/>
</g>
<!-- [root] aws_instance.public_vm_1 (expand)&#45;&gt;[root] aws_subnet.public_subnet (expand) -->
<g id="edge10" class="edge">
<title>[root] aws_instance.public_vm_1 (expand)&#45;&gt;[root] aws_subnet.public_subnet (expand)</title>
<path fill="none" stroke="black" d="M565.83,-289.43C568.99,-288.94 572.12,-288.47 575.21,-288 677.88,-272.4 706.16,-268.46 811.49,-252.41"/>
<polygon fill="black" stroke="black" points="811.76,-255.91 821.12,-250.94 810.71,-248.99 811.76,-255.91"/>
</g>
<!-- [root] aws_instance.public_vm_1 (expand)&#45;&gt;[root] data.aws_key_pair.key (expand) -->
<g id="edge11" class="edge">
<title>[root] aws_instance.public_vm_1 (expand)&#45;&gt;[root] data.aws_key_pair.key (expand)</title>
<path fill="none" stroke="black" d="M454.81,-287.7C450.62,-279.98 445.59,-270.71 440.92,-262.11"/>
<polygon fill="black" stroke="black" points="444.06,-260.55 436.21,-253.43 437.91,-263.89 444.06,-260.55"/>
</g>
<!-- [root] aws_vpc.main (expand) -->
<g id="node10" class="node">
<title>[root] aws_vpc.main (expand)</title>
<polygon fill="none" stroke="black" points="1021.71,-180 906.71,-180 906.71,-144 1021.71,-144 1021.71,-180"/>
<text text-anchor="middle" x="964.21" y="-157.32" font-family="Times,serif" font-size="14.00">aws_vpc.main</text>
</g>
<!-- [root] aws_internet_gateway.igw_infra (expand)&#45;&gt;[root] aws_vpc.main (expand) -->
<g id="edge12" class="edge">
<title>[root] aws_internet_gateway.igw_infra (expand)&#45;&gt;[root] aws_vpc.main (expand)</title>
<path fill="none" stroke="black" d="M1115,-215.52C1087.68,-206 1053.67,-194.16 1024.87,-184.13"/>
<polygon fill="black" stroke="black" points="1026.14,-180.86 1015.55,-180.88 1023.84,-187.47 1026.14,-180.86"/>
</g>
<!-- [root] aws_s3_bucket.proveedores (expand) -->
<g id="node6" class="node">
<title>[root] aws_s3_bucket.proveedores (expand)</title>
<polygon fill="none" stroke="black" points="1610.58,-180 1395.83,-180 1395.83,-144 1610.58,-144 1610.58,-180"/>
<text text-anchor="middle" x="1503.21" y="-157.32" font-family="Times,serif" font-size="14.00">aws_s3_bucket.proveedores</text>
</g>
<!-- [root] provider[&quot;registry.terraform.io/hashicorp/aws&quot;] -->
<g id="node12" class="node">
<title>[root] provider[&quot;registry.terraform.io/hashicorp/aws&quot;]</title>
<polygon fill="none" stroke="black" points="675.21,-108 324.52,-90 675.21,-72 1025.89,-90 675.21,-108"/>
<text text-anchor="middle" x="675.21" y="-85.33" font-family="Times,serif" font-size="14.00">provider[&quot;registry.terraform.io/hashicorp/aws&quot;]</text>
</g>
<!-- [root] aws_s3_bucket.proveedores (expand)&#45;&gt;[root] provider[&quot;registry.terraform.io/hashicorp/aws&quot;] -->
<g id="edge13" class="edge">
<title>[root] aws_s3_bucket.proveedores (expand)&#45;&gt;[root] provider[&quot;registry.terraform.io/hashicorp/aws&quot;]</title>
<path fill="none" stroke="black" d="M1395.34,-151.65C1366.39,-149.15 1335.11,-146.46 1306.21,-144 1137.94,-129.67 944.41,-113.46 816.52,-102.78"/>
<polygon fill="black" stroke="black" points="816.89,-99.3 806.63,-101.95 816.31,-106.27 816.89,-99.3"/>
</g>
<!-- [root] aws_security_group.infra_sec_group (expand)&#45;&gt;[root] aws_vpc.main (expand) -->
<g id="edge14" class="edge">
<title>[root] aws_security_group.infra_sec_group (expand)&#45;&gt;[root] aws_vpc.main (expand)</title>
<path fill="none" stroke="black" d="M742.14,-215.52C789.12,-204.41 849.52,-190.12 895.47,-179.26"/>
<polygon fill="black" stroke="black" points="896.12,-182.7 905.05,-176.99 894.51,-175.89 896.12,-182.7"/>
</g>
<!-- [root] var.all_ip -->
<g id="node13" class="node">
<title>[root] var.all_ip</title>
<polygon fill="none" stroke="black" points="702.08,-180 628.33,-180 628.33,-144 708.08,-144 708.08,-174 702.08,-180"/>
<polyline fill="none" stroke="black" points="702.08,-180 702.08,-174"/>
<polyline fill="none" stroke="black" points="708.08,-174 702.08,-174"/>
<text text-anchor="middle" x="668.21" y="-157.32" font-family="Times,serif" font-size="14.00">var.all_ip</text>
</g>
<!-- [root] aws_security_group.infra_sec_group (expand)&#45;&gt;[root] var.all_ip -->
<g id="edge15" class="edge">
<title>[root] aws_security_group.infra_sec_group (expand)&#45;&gt;[root] var.all_ip</title>
<path fill="none" stroke="black" d="M668.21,-215.7C668.21,-208.41 668.21,-199.73 668.21,-191.54"/>
<polygon fill="black" stroke="black" points="671.71,-191.62 668.21,-181.62 664.71,-191.62 671.71,-191.62"/>
</g>
<!-- [root] aws_subnet.private_subnet (expand)&#45;&gt;[root] aws_vpc.main (expand) -->
<g id="edge16" class="edge">
<title>[root] aws_subnet.private_subnet (expand)&#45;&gt;[root] aws_vpc.main (expand)</title>
<path fill="none" stroke="black" d="M1304.79,-216.46C1220.93,-203.29 1106,-185.26 1033.43,-173.86"/>
<polygon fill="black" stroke="black" points="1034.07,-170.42 1023.65,-172.33 1032.99,-177.34 1034.07,-170.42"/>
</g>
<!-- [root] var.subnets -->
<g id="node17" class="node">
<title>[root] var.subnets</title>
<polygon fill="none" stroke="black" points="1291.46,-180 1198.96,-180 1198.96,-144 1297.46,-144 1297.46,-174 1291.46,-180"/>
<polyline fill="none" stroke="black" points="1291.46,-180 1291.46,-174"/>
<polyline fill="none" stroke="black" points="1297.46,-174 1291.46,-174"/>
<text text-anchor="middle" x="1248.21" y="-157.32" font-family="Times,serif" font-size="14.00">var.subnets</text>
</g>
<!-- [root] aws_subnet.private_subnet (expand)&#45;&gt;[root] var.subnets -->
<g id="edge17" class="edge">
<title>[root] aws_subnet.private_subnet (expand)&#45;&gt;[root] var.subnets</title>
<path fill="none" stroke="black" d="M1369.74,-215.52C1348.3,-206.25 1321.76,-194.78 1298.95,-184.93"/>
<polygon fill="black" stroke="black" points="1300.39,-181.74 1289.82,-180.98 1297.61,-188.16 1300.39,-181.74"/>
</g>
<!-- [root] aws_subnet.public_subnet (expand)&#45;&gt;[root] aws_vpc.main (expand) -->
<g id="edge18" class="edge">
<title>[root] aws_subnet.public_subnet (expand)&#45;&gt;[root] aws_vpc.main (expand)</title>
<path fill="none" stroke="black" d="M934.09,-215.7C938.55,-207.9 943.91,-198.51 948.87,-189.83"/>
<polygon fill="black" stroke="black" points="951.76,-191.84 953.68,-181.42 945.68,-188.36 951.76,-191.84"/>
</g>
<!-- [root] aws_subnet.public_subnet (expand)&#45;&gt;[root] var.subnets -->
<g id="edge19" class="edge">
<title>[root] aws_subnet.public_subnet (expand)&#45;&gt;[root] var.subnets</title>
<path fill="none" stroke="black" d="M1005.13,-215.52C1061.71,-203.29 1136.06,-187.23 1187.56,-176.1"/>
<polygon fill="black" stroke="black" points="1188,-179.59 1197.04,-174.05 1186.52,-172.75 1188,-179.59"/>
</g>
<!-- [root] aws_vpc.main (expand)&#45;&gt;[root] provider[&quot;registry.terraform.io/hashicorp/aws&quot;] -->
<g id="edge20" class="edge">
<title>[root] aws_vpc.main (expand)&#45;&gt;[root] provider[&quot;registry.terraform.io/hashicorp/aws&quot;]</title>
<path fill="none" stroke="black" d="M906.42,-147C860.02,-135.76 794.68,-119.94 745.3,-107.98"/>
<polygon fill="black" stroke="black" points="746.4,-104.64 735.85,-105.69 744.75,-111.45 746.4,-104.64"/>
</g>
<!-- [root] var.virginia_cidr -->
<g id="node18" class="node">
<title>[root] var.virginia_cidr</title>
<polygon fill="none" stroke="black" points="1168.96,-108 1043.46,-108 1043.46,-72 1174.96,-72 1174.96,-102 1168.96,-108"/>
<polyline fill="none" stroke="black" points="1168.96,-108 1168.96,-102"/>
<polyline fill="none" stroke="black" points="1174.96,-102 1168.96,-102"/>
<text text-anchor="middle" x="1109.21" y="-85.33" font-family="Times,serif" font-size="14.00">var.virginia_cidr</text>
</g>
<!-- [root] aws_vpc.main (expand)&#45;&gt;[root] var.virginia_cidr -->
<g id="edge21" class="edge">
<title>[root] aws_vpc.main (expand)&#45;&gt;[root] var.virginia_cidr</title>
<path fill="none" stroke="black" d="M1000.42,-143.52C1019.35,-134.38 1042.73,-123.09 1062.95,-113.33"/>
<polygon fill="black" stroke="black" points="1064.35,-116.54 1071.84,-109.04 1061.31,-110.24 1064.35,-116.54"/>
</g>
<!-- [root] data.aws_key_pair.key (expand)&#45;&gt;[root] provider[&quot;registry.terraform.io/hashicorp/aws&quot;] -->
<g id="edge22" class="edge">
<title>[root] data.aws_key_pair.key (expand)&#45;&gt;[root] provider[&quot;registry.terraform.io/hashicorp/aws&quot;]</title>
<path fill="none" stroke="black" d="M456.74,-215.59C502.2,-189.66 587.64,-140.94 637.12,-112.72"/>
<polygon fill="black" stroke="black" points="638.84,-115.77 645.8,-107.77 635.38,-109.69 638.84,-115.77"/>
</g>
<!-- [root] var.default_zone -->
<g id="node14" class="node">
<title>[root] var.default_zone</title>
<polygon fill="none" stroke="black" points="735.33,-36 609.08,-36 609.08,0 741.33,0 741.33,-30 735.33,-36"/>
<polyline fill="none" stroke="black" points="735.33,-36 735.33,-30"/>
<polyline fill="none" stroke="black" points="741.33,-30 735.33,-30"/>
<text text-anchor="middle" x="675.21" y="-13.32" font-family="Times,serif" font-size="14.00">var.default_zone</text>
</g>
<!-- [root] provider[&quot;registry.terraform.io/hashicorp/aws&quot;]&#45;&gt;[root] var.default_zone -->
<g id="edge30" class="edge">
<title>[root] provider[&quot;registry.terraform.io/hashicorp/aws&quot;]&#45;&gt;[root] var.default_zone</title>
<path fill="none" stroke="black" d="M675.21,-71.7C675.21,-64.41 675.21,-55.73 675.21,-47.54"/>
<polygon fill="black" stroke="black" points="678.71,-47.62 675.21,-37.62 671.71,-47.62 678.71,-47.62"/>
</g>
<!-- [root] var.private_subnet_cidr -->
<g id="node15" class="node">
<title>[root] var.private_subnet_cidr</title>
<polygon fill="none" stroke="black" points="1707.83,-396 1530.58,-396 1530.58,-360 1713.83,-360 1713.83,-390 1707.83,-396"/>
<polyline fill="none" stroke="black" points="1707.83,-396 1707.83,-390"/>
<polyline fill="none" stroke="black" points="1713.83,-390 1707.83,-390"/>
<text text-anchor="middle" x="1622.21" y="-373.32" font-family="Times,serif" font-size="14.00">var.private_subnet_cidr</text>
</g>
<!-- [root] var.public_subnet_cidr -->
<g id="node16" class="node">
<title>[root] var.public_subnet_cidr</title>
<polygon fill="none" stroke="black" points="1902.08,-396 1732.33,-396 1732.33,-360 1908.08,-360 1908.08,-390 1902.08,-396"/>
<polyline fill="none" stroke="black" points="1902.08,-396 1902.08,-390"/>
<polyline fill="none" stroke="black" points="1908.08,-390 1902.08,-390"/>
<text text-anchor="middle" x="1820.21" y="-373.32" font-family="Times,serif" font-size="14.00">var.public_subnet_cidr</text>
</g>
<!-- [root] output.ec2_public_ip (expand) -->
<g id="node19" class="node">
<title>[root] output.ec2_public_ip (expand)</title>
<ellipse fill="none" stroke="black" cx="192.21" cy="-378" rx="192.21" ry="18"/>
<text text-anchor="middle" x="192.21" y="-373.32" font-family="Times,serif" font-size="14.00">[root] output.ec2_public_ip (expand)</text>
</g>
<!-- [root] output.ec2_public_ip (expand)&#45;&gt;[root] aws_instance.public_vm_1 (expand) -->
<g id="edge23" class="edge">
<title>[root] output.ec2_public_ip (expand)&#45;&gt;[root] aws_instance.public_vm_1 (expand)</title>
<path fill="none" stroke="black" d="M255.98,-360.59C294.67,-350.63 344.35,-337.85 385.48,-327.26"/>
<polygon fill="black" stroke="black" points="386.28,-330.67 395.09,-324.79 384.54,-323.89 386.28,-330.67"/>
</g>
<!-- [root] output.ec2_public_user_data (expand) -->
<g id="node20" class="node">
<title>[root] output.ec2_public_user_data (expand)</title>
<ellipse fill="none" stroke="black" cx="634.21" cy="-378" rx="231.66" ry="18"/>
<text text-anchor="middle" x="634.21" y="-373.32" font-family="Times,serif" font-size="14.00">[root] output.ec2_public_user_data (expand)</text>
</g>
<!-- [root] output.ec2_public_user_data (expand)&#45;&gt;[root] aws_instance.public_vm&#45;2 (expand) -->
<g id="edge24" class="edge">
<title>[root] output.ec2_public_user_data (expand)&#45;&gt;[root] aws_instance.public_vm&#45;2 (expand)</title>
<path fill="none" stroke="black" d="M646.57,-359.7C652.26,-351.73 659.13,-342.1 665.45,-333.26"/>
<polygon fill="black" stroke="black" points="668.14,-335.51 671.11,-325.34 662.45,-331.44 668.14,-335.51"/>
</g>
<!-- [root] provider[&quot;registry.terraform.io/hashicorp/aws&quot;] (close) -->
<g id="node21" class="node">
<title>[root] provider[&quot;registry.terraform.io/hashicorp/aws&quot;] (close)</title>
<ellipse fill="none" stroke="black" cx="1198.21" cy="-378" rx="314.79" ry="18"/>
<text text-anchor="middle" x="1198.21" y="-373.32" font-family="Times,serif" font-size="14.00">[root] provider[&quot;registry.terraform.io/hashicorp/aws&quot;] (close)</text>
</g>
<!-- [root] provider[&quot;registry.terraform.io/hashicorp/aws&quot;] (close)&#45;&gt;[root] aws_default_route_table.main_vpc_default (expand) -->
<g id="edge25" class="edge">
<title>[root] provider[&quot;registry.terraform.io/hashicorp/aws&quot;] (close)&#45;&gt;[root] aws_default_route_table.main_vpc_default (expand)</title>
<path fill="none" stroke="black" d="M1198.21,-359.7C1198.21,-352.41 1198.21,-343.73 1198.21,-335.54"/>
<polygon fill="black" stroke="black" points="1201.71,-335.62 1198.21,-325.62 1194.71,-335.62 1201.71,-335.62"/>
</g>
<!-- [root] provider[&quot;registry.terraform.io/hashicorp/aws&quot;] (close)&#45;&gt;[root] aws_instance.private_vm_1 (expand) -->
<g id="edge26" class="edge">
<title>[root] provider[&quot;registry.terraform.io/hashicorp/aws&quot;] (close)&#45;&gt;[root] aws_instance.private_vm_1 (expand)</title>
<path fill="none" stroke="black" d="M1129.58,-359.97C1089.77,-350.08 1039.4,-337.58 997.6,-327.2"/>
<polygon fill="black" stroke="black" points="998.63,-323.85 988.08,-324.84 996.94,-330.65 998.63,-323.85"/>
</g>
<!-- [root] provider[&quot;registry.terraform.io/hashicorp/aws&quot;] (close)&#45;&gt;[root] aws_instance.public_vm&#45;2 (expand) -->
<g id="edge27" class="edge">
<title>[root] provider[&quot;registry.terraform.io/hashicorp/aws&quot;] (close)&#45;&gt;[root] aws_instance.public_vm&#45;2 (expand)</title>
<path fill="none" stroke="black" d="M1075.96,-360.96C997.67,-350.61 893.92,-336.74 802.21,-324 800.18,-323.72 798.13,-323.43 796.07,-323.15"/>
<polygon fill="black" stroke="black" points="796.83,-319.72 786.44,-321.79 795.85,-326.65 796.83,-319.72"/>
</g>
<!-- [root] provider[&quot;registry.terraform.io/hashicorp/aws&quot;] (close)&#45;&gt;[root] aws_instance.public_vm_1 (expand) -->
<g id="edge28" class="edge">
<title>[root] provider[&quot;registry.terraform.io/hashicorp/aws&quot;] (close)&#45;&gt;[root] aws_instance.public_vm_1 (expand)</title>
<path fill="none" stroke="black" d="M1000.75,-363.6C881.06,-354.66 725.05,-341.55 576.9,-324.15"/>
<polygon fill="black" stroke="black" points="577.64,-320.72 567.29,-323.02 576.81,-327.67 577.64,-320.72"/>
</g>
<!-- [root] provider[&quot;registry.terraform.io/hashicorp/aws&quot;] (close)&#45;&gt;[root] aws_s3_bucket.proveedores (expand) -->
<g id="edge29" class="edge">
<title>[root] provider[&quot;registry.terraform.io/hashicorp/aws&quot;] (close)&#45;&gt;[root] aws_s3_bucket.proveedores (expand)</title>
<path fill="none" stroke="black" d="M1338.45,-361.48C1407.27,-345.83 1483.88,-314.53 1524.21,-252 1536.13,-233.51 1528.99,-208.96 1519.93,-190.33"/>
<polygon fill="black" stroke="black" points="1523.15,-188.93 1515.37,-181.73 1516.97,-192.21 1523.15,-188.93"/>
</g>
<!-- [root] root -->
<g id="node22" class="node">
<title>[root] root</title>
<ellipse fill="none" stroke="black" cx="1198.21" cy="-450" rx="62.78" ry="18"/>
<text text-anchor="middle" x="1198.21" y="-445.32" font-family="Times,serif" font-size="14.00">[root] root</text>
</g>
<!-- [root] root&#45;&gt;[root] var.private_subnet_cidr -->
<g id="edge34" class="edge">
<title>[root] root&#45;&gt;[root] var.private_subnet_cidr</title>
<path fill="none" stroke="black" d="M1251.83,-440.33C1313.77,-430.3 1419.09,-413.17 1518.92,-396.54"/>
<polygon fill="black" stroke="black" points="1519.34,-400.02 1528.63,-394.93 1518.19,-393.12 1519.34,-400.02"/>
</g>
<!-- [root] root&#45;&gt;[root] var.public_subnet_cidr -->
<g id="edge35" class="edge">
<title>[root] root&#45;&gt;[root] var.public_subnet_cidr</title>
<path fill="none" stroke="black" d="M1258.21,-444.37C1353.86,-436.69 1546.99,-419.88 1720.81,-396.27"/>
<polygon fill="black" stroke="black" points="1721.03,-399.78 1730.46,-394.95 1720.08,-392.84 1721.03,-399.78"/>
</g>
<!-- [root] root&#45;&gt;[root] output.ec2_public_ip (expand) -->
<g id="edge31" class="edge">
<title>[root] root&#45;&gt;[root] output.ec2_public_ip (expand)</title>
<path fill="none" stroke="black" d="M1137.08,-445.37C1002.57,-437.28 670.79,-416.87 393.21,-396 376.22,-394.72 358.44,-393.32 340.77,-391.88"/>
<polygon fill="black" stroke="black" points="341.26,-388.41 331,-391.08 340.68,-395.38 341.26,-388.41"/>
</g>
<!-- [root] root&#45;&gt;[root] output.ec2_public_user_data (expand) -->
<g id="edge32" class="edge">
<title>[root] root&#45;&gt;[root] output.ec2_public_user_data (expand)</title>
<path fill="none" stroke="black" d="M1141.28,-441.94C1053.83,-431.08 884.09,-410.01 765.17,-395.25"/>
<polygon fill="black" stroke="black" points="765.69,-391.79 755.33,-394.03 764.82,-398.74 765.69,-391.79"/>
</g>
<!-- [root] root&#45;&gt;[root] provider[&quot;registry.terraform.io/hashicorp/aws&quot;] (close) -->
<g id="edge33" class="edge">
<title>[root] root&#45;&gt;[root] provider[&quot;registry.terraform.io/hashicorp/aws&quot;] (close)</title>
<path fill="none" stroke="black" d="M1198.21,-431.7C1198.21,-424.41 1198.21,-415.73 1198.21,-407.54"/>
<polygon fill="black" stroke="black" points="1201.71,-407.62 1198.21,-397.62 1194.71,-407.62 1201.71,-407.62"/>
</g>
</g>
</svg>
