<?xml version="1.0" encoding="UTF-8" standalone="no"?>
<!DOCTYPE svg PUBLIC "-//W3C//DTD SVG 1.1//EN"
 "http://www.w3.org/Graphics/SVG/1.1/DTD/svg11.dtd">
<!-- Generated by graphviz version 9.0.0 (0)
 -->
<!-- Pages: 1 -->
<svg width="1589pt" height="476pt"
 viewBox="0.00 0.00 1588.75 476.00" xmlns="http://www.w3.org/2000/svg" xmlns:xlink="http://www.w3.org/1999/xlink">
<g id="graph0" class="graph" transform="scale(1 1) rotate(0) translate(4 472)">
<polygon fill="white" stroke="none" points="-4,4 -4,-472 1584.75,-472 1584.75,4 -4,4"/>
<!-- [root] aws_default_route_table.main_vpc_default (expand) -->
<g id="node1" class="node">
<title>[root] aws_default_route_table.main_vpc_default (expand)</title>
<polygon fill="none" stroke="black" points="819,-324 502.25,-324 502.25,-288 819,-288 819,-324"/>
<text text-anchor="middle" x="660.62" y="-301.32" font-family="Times,serif" font-size="14.00">aws_default_route_table.main_vpc_default</text>
</g>
<!-- [root] aws_internet_gateway.igw_infra (expand) -->
<g id="node4" class="node">
<title>[root] aws_internet_gateway.igw_infra (expand)</title>
<polygon fill="none" stroke="black" points="646.25,-252 403,-252 403,-216 646.25,-216 646.25,-252"/>
<text text-anchor="middle" x="524.62" y="-229.32" font-family="Times,serif" font-size="14.00">aws_internet_gateway.igw_infra</text>
</g>
<!-- [root] aws_default_route_table.main_vpc_default (expand)&#45;&gt;[root] aws_internet_gateway.igw_infra (expand) -->
<g id="edge1" class="edge">
<title>[root] aws_default_route_table.main_vpc_default (expand)&#45;&gt;[root] aws_internet_gateway.igw_infra (expand)</title>
<path fill="none" stroke="black" d="M626.66,-287.52C609,-278.43 587.22,-267.22 568.32,-257.49"/>
<polygon fill="black" stroke="black" points="570,-254.42 559.51,-252.95 566.8,-260.64 570,-254.42"/>
</g>
<!-- [root] aws_instance.private_vm_1 (expand) -->
<g id="node2" class="node">
<title>[root] aws_instance.private_vm_1 (expand)</title>
<polygon fill="none" stroke="black" points="1106.75,-324 896.5,-324 896.5,-288 1106.75,-288 1106.75,-324"/>
<text text-anchor="middle" x="1001.62" y="-301.32" font-family="Times,serif" font-size="14.00">aws_instance.private_vm_1</text>
</g>
<!-- [root] aws_security_group.infra_sec_group (expand) -->
<g id="node6" class="node">
<title>[root] aws_security_group.infra_sec_group (expand)</title>
<polygon fill="none" stroke="black" points="938.62,-252 664.62,-252 664.62,-216 938.62,-216 938.62,-252"/>
<text text-anchor="middle" x="801.62" y="-229.32" font-family="Times,serif" font-size="14.00">aws_security_group.infra_sec_group</text>
</g>
<!-- [root] aws_instance.private_vm_1 (expand)&#45;&gt;[root] aws_security_group.infra_sec_group (expand) -->
<g id="edge2" class="edge">
<title>[root] aws_instance.private_vm_1 (expand)&#45;&gt;[root] aws_security_group.infra_sec_group (expand)</title>
<path fill="none" stroke="black" d="M951.67,-287.52C924.49,-278 890.65,-266.16 861.99,-256.13"/>
<polygon fill="black" stroke="black" points="863.31,-252.88 852.72,-252.88 861,-259.49 863.31,-252.88"/>
</g>
<!-- [root] aws_subnet.private_subnet (expand) -->
<g id="node7" class="node">
<title>[root] aws_subnet.private_subnet (expand)</title>
<polygon fill="none" stroke="black" points="1166.75,-252 956.5,-252 956.5,-216 1166.75,-216 1166.75,-252"/>
<text text-anchor="middle" x="1061.62" y="-229.32" font-family="Times,serif" font-size="14.00">aws_subnet.private_subnet</text>
</g>
<!-- [root] aws_instance.private_vm_1 (expand)&#45;&gt;[root] aws_subnet.private_subnet (expand) -->
<g id="edge3" class="edge">
<title>[root] aws_instance.private_vm_1 (expand)&#45;&gt;[root] aws_subnet.private_subnet (expand)</title>
<path fill="none" stroke="black" d="M1016.46,-287.7C1023.43,-279.56 1031.89,-269.69 1039.6,-260.7"/>
<polygon fill="black" stroke="black" points="1042.13,-263.12 1045.98,-253.25 1036.81,-258.57 1042.13,-263.12"/>
</g>
<!-- [root] data.aws_key_pair.key (expand) -->
<g id="node10" class="node">
<title>[root] data.aws_key_pair.key (expand)</title>
<polygon fill="none" stroke="black" points="1580.75,-252 1406.5,-252 1406.5,-216 1580.75,-216 1580.75,-252"/>
<text text-anchor="middle" x="1493.62" y="-229.32" font-family="Times,serif" font-size="14.00">data.aws_key_pair.key</text>
</g>
<!-- [root] aws_instance.private_vm_1 (expand)&#45;&gt;[root] data.aws_key_pair.key (expand) -->
<g id="edge4" class="edge">
<title>[root] aws_instance.private_vm_1 (expand)&#45;&gt;[root] data.aws_key_pair.key (expand)</title>
<path fill="none" stroke="black" d="M1107.15,-290.5C1113.4,-289.65 1119.6,-288.81 1125.62,-288 1242.51,-272.22 1274.67,-270.58 1395,-252.21"/>
<polygon fill="black" stroke="black" points="1395.29,-255.71 1404.65,-250.73 1394.23,-248.79 1395.29,-255.71"/>
</g>
<!-- [root] aws_instance.public_vm_1 (expand) -->
<g id="node3" class="node">
<title>[root] aws_instance.public_vm_1 (expand)</title>
<polygon fill="none" stroke="black" points="1337,-324 1134.25,-324 1134.25,-288 1337,-288 1337,-324"/>
<text text-anchor="middle" x="1235.62" y="-301.32" font-family="Times,serif" font-size="14.00">aws_instance.public_vm_1</text>
</g>
<!-- [root] aws_instance.public_vm_1 (expand)&#45;&gt;[root] aws_security_group.infra_sec_group (expand) -->
<g id="edge5" class="edge">
<title>[root] aws_instance.public_vm_1 (expand)&#45;&gt;[root] aws_security_group.infra_sec_group (expand)</title>
<path fill="none" stroke="black" d="M1133.87,-288.59C1070.15,-278.31 987.75,-265.02 920.95,-254.25"/>
<polygon fill="black" stroke="black" points="921.87,-250.85 911.44,-252.71 920.75,-257.76 921.87,-250.85"/>
</g>
<!-- [root] aws_subnet.public_subnet (expand) -->
<g id="node8" class="node">
<title>[root] aws_subnet.public_subnet (expand)</title>
<polygon fill="none" stroke="black" points="1388,-252 1185.25,-252 1185.25,-216 1388,-216 1388,-252"/>
<text text-anchor="middle" x="1286.62" y="-229.32" font-family="Times,serif" font-size="14.00">aws_subnet.public_subnet</text>
</g>
<!-- [root] aws_instance.public_vm_1 (expand)&#45;&gt;[root] aws_subnet.public_subnet (expand) -->
<g id="edge6" class="edge">
<title>[root] aws_instance.public_vm_1 (expand)&#45;&gt;[root] aws_subnet.public_subnet (expand)</title>
<path fill="none" stroke="black" d="M1248.23,-287.7C1254.04,-279.73 1261.05,-270.1 1267.49,-261.26"/>
<polygon fill="black" stroke="black" points="1270.21,-263.47 1273.27,-253.33 1264.55,-259.35 1270.21,-263.47"/>
</g>
<!-- [root] aws_instance.public_vm_1 (expand)&#45;&gt;[root] data.aws_key_pair.key (expand) -->
<g id="edge7" class="edge">
<title>[root] aws_instance.public_vm_1 (expand)&#45;&gt;[root] data.aws_key_pair.key (expand)</title>
<path fill="none" stroke="black" d="M1300.06,-287.52C1336.06,-277.75 1381.1,-265.53 1418.67,-255.34"/>
<polygon fill="black" stroke="black" points="1419.37,-258.77 1428.1,-252.78 1417.53,-252.02 1419.37,-258.77"/>
</g>
<!-- [root] aws_vpc.main (expand) -->
<g id="node9" class="node">
<title>[root] aws_vpc.main (expand)</title>
<polygon fill="none" stroke="black" points="1051.12,-180 936.12,-180 936.12,-144 1051.12,-144 1051.12,-180"/>
<text text-anchor="middle" x="993.62" y="-157.32" font-family="Times,serif" font-size="14.00">aws_vpc.main</text>
</g>
<!-- [root] aws_internet_gateway.igw_infra (expand)&#45;&gt;[root] aws_vpc.main (expand) -->
<g id="edge8" class="edge">
<title>[root] aws_internet_gateway.igw_infra (expand)&#45;&gt;[root] aws_vpc.main (expand)</title>
<path fill="none" stroke="black" d="M641.76,-215.52C730.93,-202.21 850.59,-184.35 924.87,-173.26"/>
<polygon fill="black" stroke="black" points="925.06,-176.77 934.44,-171.83 924.03,-169.85 925.06,-176.77"/>
</g>
<!-- [root] aws_s3_bucket.proveedores (expand) -->
<g id="node5" class="node">
<title>[root] aws_s3_bucket.proveedores (expand)</title>
<polygon fill="none" stroke="black" points="613,-180 398.25,-180 398.25,-144 613,-144 613,-180"/>
<text text-anchor="middle" x="505.62" y="-157.32" font-family="Times,serif" font-size="14.00">aws_s3_bucket.proveedores</text>
</g>
<!-- [root] provider[&quot;registry.terraform.io/hashicorp/aws&quot;] -->
<g id="node11" class="node">
<title>[root] provider[&quot;registry.terraform.io/hashicorp/aws&quot;]</title>
<polygon fill="none" stroke="black" points="655.62,-108 304.94,-90 655.62,-72 1006.31,-90 655.62,-108"/>
<text text-anchor="middle" x="655.62" y="-85.33" font-family="Times,serif" font-size="14.00">provider[&quot;registry.terraform.io/hashicorp/aws&quot;]</text>
</g>
<!-- [root] aws_s3_bucket.proveedores (expand)&#45;&gt;[root] provider[&quot;registry.terraform.io/hashicorp/aws&quot;] -->
<g id="edge9" class="edge">
<title>[root] aws_s3_bucket.proveedores (expand)&#45;&gt;[root] provider[&quot;registry.terraform.io/hashicorp/aws&quot;]</title>
<path fill="none" stroke="black" d="M543.09,-143.52C563.9,-133.81 589.89,-121.67 611.66,-111.52"/>
<polygon fill="black" stroke="black" points="613.01,-114.75 620.59,-107.35 610.05,-108.41 613.01,-114.75"/>
</g>
<!-- [root] aws_security_group.infra_sec_group (expand)&#45;&gt;[root] aws_vpc.main (expand) -->
<g id="edge10" class="edge">
<title>[root] aws_security_group.infra_sec_group (expand)&#45;&gt;[root] aws_vpc.main (expand)</title>
<path fill="none" stroke="black" d="M849.58,-215.52C875.56,-206.04 907.88,-194.26 935.31,-184.26"/>
<polygon fill="black" stroke="black" points="936.33,-187.61 944.53,-180.9 933.93,-181.04 936.33,-187.61"/>
</g>
<!-- [root] var.all_ip -->
<g id="node12" class="node">
<title>[root] var.all_ip</title>
<polygon fill="none" stroke="black" points="835.5,-180 761.75,-180 761.75,-144 841.5,-144 841.5,-174 835.5,-180"/>
<polyline fill="none" stroke="black" points="835.5,-180 835.5,-174"/>
<polyline fill="none" stroke="black" points="841.5,-174 835.5,-174"/>
<text text-anchor="middle" x="801.62" y="-157.32" font-family="Times,serif" font-size="14.00">var.all_ip</text>
</g>
<!-- [root] aws_security_group.infra_sec_group (expand)&#45;&gt;[root] var.all_ip -->
<g id="edge11" class="edge">
<title>[root] aws_security_group.infra_sec_group (expand)&#45;&gt;[root] var.all_ip</title>
<path fill="none" stroke="black" d="M801.62,-215.7C801.62,-208.41 801.62,-199.73 801.62,-191.54"/>
<polygon fill="black" stroke="black" points="805.13,-191.62 801.63,-181.62 798.13,-191.62 805.13,-191.62"/>
</g>
<!-- [root] aws_subnet.private_subnet (expand)&#45;&gt;[root] aws_vpc.main (expand) -->
<g id="edge12" class="edge">
<title>[root] aws_subnet.private_subnet (expand)&#45;&gt;[root] aws_vpc.main (expand)</title>
<path fill="none" stroke="black" d="M1044.82,-215.7C1036.75,-207.39 1026.92,-197.28 1018.05,-188.14"/>
<polygon fill="black" stroke="black" points="1020.77,-185.92 1011.3,-181.19 1015.75,-190.8 1020.77,-185.92"/>
</g>
<!-- [root] var.subnets -->
<g id="node16" class="node">
<title>[root] var.subnets</title>
<polygon fill="none" stroke="black" points="1171.88,-180 1079.38,-180 1079.38,-144 1177.88,-144 1177.88,-174 1171.88,-180"/>
<polyline fill="none" stroke="black" points="1171.88,-180 1171.88,-174"/>
<polyline fill="none" stroke="black" points="1177.88,-174 1171.88,-174"/>
<text text-anchor="middle" x="1128.62" y="-157.32" font-family="Times,serif" font-size="14.00">var.subnets</text>
</g>
<!-- [root] aws_subnet.private_subnet (expand)&#45;&gt;[root] var.subnets -->
<g id="edge13" class="edge">
<title>[root] aws_subnet.private_subnet (expand)&#45;&gt;[root] var.subnets</title>
<path fill="none" stroke="black" d="M1078.19,-215.7C1086.06,-207.47 1095.62,-197.48 1104.29,-188.42"/>
<polygon fill="black" stroke="black" points="1106.82,-190.84 1111.21,-181.2 1101.76,-186 1106.82,-190.84"/>
</g>
<!-- [root] aws_subnet.public_subnet (expand)&#45;&gt;[root] aws_vpc.main (expand) -->
<g id="edge14" class="edge">
<title>[root] aws_subnet.public_subnet (expand)&#45;&gt;[root] aws_vpc.main (expand)</title>
<path fill="none" stroke="black" d="M1213.44,-215.52C1167.09,-204.44 1107.55,-190.22 1062.13,-179.37"/>
<polygon fill="black" stroke="black" points="1063.21,-176.03 1052.67,-177.11 1061.58,-182.83 1063.21,-176.03"/>
</g>
<!-- [root] aws_subnet.public_subnet (expand)&#45;&gt;[root] var.subnets -->
<g id="edge15" class="edge">
<title>[root] aws_subnet.public_subnet (expand)&#45;&gt;[root] var.subnets</title>
<path fill="none" stroke="black" d="M1247.16,-215.52C1226.25,-206.25 1200.36,-194.78 1178.12,-184.93"/>
<polygon fill="black" stroke="black" points="1179.8,-181.85 1169.24,-180.99 1176.97,-188.25 1179.8,-181.85"/>
</g>
<!-- [root] aws_vpc.main (expand)&#45;&gt;[root] provider[&quot;registry.terraform.io/hashicorp/aws&quot;] -->
<g id="edge16" class="edge">
<title>[root] aws_vpc.main (expand)&#45;&gt;[root] provider[&quot;registry.terraform.io/hashicorp/aws&quot;]</title>
<path fill="none" stroke="black" d="M935.9,-149.05C880.44,-137.56 796.18,-120.11 734.52,-107.34"/>
<polygon fill="black" stroke="black" points="735.27,-103.92 724.77,-105.32 733.85,-110.78 735.27,-103.92"/>
</g>
<!-- [root] var.virginia_cidr -->
<g id="node17" class="node">
<title>[root] var.virginia_cidr</title>
<polygon fill="none" stroke="black" points="1149.38,-108 1023.88,-108 1023.88,-72 1155.38,-72 1155.38,-102 1149.38,-108"/>
<polyline fill="none" stroke="black" points="1149.38,-108 1149.38,-102"/>
<polyline fill="none" stroke="black" points="1155.38,-102 1149.38,-102"/>
<text text-anchor="middle" x="1089.62" y="-85.33" font-family="Times,serif" font-size="14.00">var.virginia_cidr</text>
</g>
<!-- [root] aws_vpc.main (expand)&#45;&gt;[root] var.virginia_cidr -->
<g id="edge17" class="edge">
<title>[root] aws_vpc.main (expand)&#45;&gt;[root] var.virginia_cidr</title>
<path fill="none" stroke="black" d="M1017.36,-143.7C1029.24,-135.03 1043.82,-124.4 1056.76,-114.96"/>
<polygon fill="black" stroke="black" points="1058.59,-117.96 1064.61,-109.24 1054.47,-112.3 1058.59,-117.96"/>
</g>
<!-- [root] data.aws_key_pair.key (expand)&#45;&gt;[root] provider[&quot;registry.terraform.io/hashicorp/aws&quot;] -->
<g id="edge18" class="edge">
<title>[root] data.aws_key_pair.key (expand)&#45;&gt;[root] provider[&quot;registry.terraform.io/hashicorp/aws&quot;]</title>
<path fill="none" stroke="black" d="M1444.06,-215.58C1383.93,-195.17 1279.11,-161.87 1186.62,-144 1070.44,-121.56 938.02,-108.32 834.48,-100.68"/>
<polygon fill="black" stroke="black" points="835.01,-97.21 824.79,-99.98 834.51,-104.19 835.01,-97.21"/>
</g>
<!-- [root] var.default_zone -->
<g id="node13" class="node">
<title>[root] var.default_zone</title>
<polygon fill="none" stroke="black" points="715.75,-36 589.5,-36 589.5,0 721.75,0 721.75,-30 715.75,-36"/>
<polyline fill="none" stroke="black" points="715.75,-36 715.75,-30"/>
<polyline fill="none" stroke="black" points="721.75,-30 715.75,-30"/>
<text text-anchor="middle" x="655.62" y="-13.32" font-family="Times,serif" font-size="14.00">var.default_zone</text>
</g>
<!-- [root] provider[&quot;registry.terraform.io/hashicorp/aws&quot;]&#45;&gt;[root] var.default_zone -->
<g id="edge24" class="edge">
<title>[root] provider[&quot;registry.terraform.io/hashicorp/aws&quot;]&#45;&gt;[root] var.default_zone</title>
<path fill="none" stroke="black" d="M655.62,-71.7C655.62,-64.41 655.62,-55.73 655.62,-47.54"/>
<polygon fill="black" stroke="black" points="659.13,-47.62 655.63,-37.62 652.13,-47.62 659.13,-47.62"/>
</g>
<!-- [root] var.private_subnet_cidr -->
<g id="node14" class="node">
<title>[root] var.private_subnet_cidr</title>
<polygon fill="none" stroke="black" points="177.25,-396 0,-396 0,-360 183.25,-360 183.25,-390 177.25,-396"/>
<polyline fill="none" stroke="black" points="177.25,-396 177.25,-390"/>
<polyline fill="none" stroke="black" points="183.25,-390 177.25,-390"/>
<text text-anchor="middle" x="91.62" y="-373.32" font-family="Times,serif" font-size="14.00">var.private_subnet_cidr</text>
</g>
<!-- [root] var.public_subnet_cidr -->
<g id="node15" class="node">
<title>[root] var.public_subnet_cidr</title>
<polygon fill="none" stroke="black" points="371.5,-396 201.75,-396 201.75,-360 377.5,-360 377.5,-390 371.5,-396"/>
<polyline fill="none" stroke="black" points="371.5,-396 371.5,-390"/>
<polyline fill="none" stroke="black" points="377.5,-390 371.5,-390"/>
<text text-anchor="middle" x="289.62" y="-373.32" font-family="Times,serif" font-size="14.00">var.public_subnet_cidr</text>
</g>
<!-- [root] output.ec2_public_ip (expand) -->
<g id="node18" class="node">
<title>[root] output.ec2_public_ip (expand)</title>
<ellipse fill="none" stroke="black" cx="1235.62" cy="-378" rx="192.21" ry="18"/>
<text text-anchor="middle" x="1235.62" y="-373.32" font-family="Times,serif" font-size="14.00">[root] output.ec2_public_ip (expand)</text>
</g>
<!-- [root] output.ec2_public_ip (expand)&#45;&gt;[root] aws_instance.public_vm_1 (expand) -->
<g id="edge19" class="edge">
<title>[root] output.ec2_public_ip (expand)&#45;&gt;[root] aws_instance.public_vm_1 (expand)</title>
<path fill="none" stroke="black" d="M1235.62,-359.7C1235.62,-352.41 1235.62,-343.73 1235.62,-335.54"/>
<polygon fill="black" stroke="black" points="1239.13,-335.62 1235.63,-325.62 1232.13,-335.62 1239.13,-335.62"/>
</g>
<!-- [root] provider[&quot;registry.terraform.io/hashicorp/aws&quot;] (close) -->
<g id="node19" class="node">
<title>[root] provider[&quot;registry.terraform.io/hashicorp/aws&quot;] (close)</title>
<ellipse fill="none" stroke="black" cx="710.62" cy="-378" rx="314.79" ry="18"/>
<text text-anchor="middle" x="710.62" y="-373.32" font-family="Times,serif" font-size="14.00">[root] provider[&quot;registry.terraform.io/hashicorp/aws&quot;] (close)</text>
</g>
<!-- [root] provider[&quot;registry.terraform.io/hashicorp/aws&quot;] (close)&#45;&gt;[root] aws_default_route_table.main_vpc_default (expand) -->
<g id="edge20" class="edge">
<title>[root] provider[&quot;registry.terraform.io/hashicorp/aws&quot;] (close)&#45;&gt;[root] aws_default_route_table.main_vpc_default (expand)</title>
<path fill="none" stroke="black" d="M698.27,-359.7C692.57,-351.73 685.7,-342.1 679.39,-333.26"/>
<polygon fill="black" stroke="black" points="682.38,-331.44 673.72,-325.34 676.69,-335.51 682.38,-331.44"/>
</g>
<!-- [root] provider[&quot;registry.terraform.io/hashicorp/aws&quot;] (close)&#45;&gt;[root] aws_instance.private_vm_1 (expand) -->
<g id="edge21" class="edge">
<title>[root] provider[&quot;registry.terraform.io/hashicorp/aws&quot;] (close)&#45;&gt;[root] aws_instance.private_vm_1 (expand)</title>
<path fill="none" stroke="black" d="M781.07,-360.05C822.31,-350.14 874.62,-337.55 917.95,-327.13"/>
<polygon fill="black" stroke="black" points="918.67,-330.55 927.57,-324.81 917.03,-323.75 918.67,-330.55"/>
</g>
<!-- [root] provider[&quot;registry.terraform.io/hashicorp/aws&quot;] (close)&#45;&gt;[root] aws_instance.public_vm_1 (expand) -->
<g id="edge22" class="edge">
<title>[root] provider[&quot;registry.terraform.io/hashicorp/aws&quot;] (close)&#45;&gt;[root] aws_instance.public_vm_1 (expand)</title>
<path fill="none" stroke="black" d="M835.2,-361.04C915.32,-350.7 1021.65,-336.81 1115.62,-324 1117.95,-323.68 1120.29,-323.36 1122.66,-323.04"/>
<polygon fill="black" stroke="black" points="1122.91,-326.54 1132.33,-321.7 1121.95,-319.6 1122.91,-326.54"/>
</g>
<!-- [root] provider[&quot;registry.terraform.io/hashicorp/aws&quot;] (close)&#45;&gt;[root] aws_s3_bucket.proveedores (expand) -->
<g id="edge23" class="edge">
<title>[root] provider[&quot;registry.terraform.io/hashicorp/aws&quot;] (close)&#45;&gt;[root] aws_s3_bucket.proveedores (expand)</title>
<path fill="none" stroke="black" d="M563.01,-361.75C496.47,-346.07 425.72,-314.66 393.62,-252 386.33,-237.76 385.07,-229.52 393.62,-216 401.91,-202.91 414.4,-192.99 428.07,-185.49"/>
<polygon fill="black" stroke="black" points="429.45,-188.72 436.84,-181.13 426.32,-182.45 429.45,-188.72"/>
</g>
<!-- [root] root -->
<g id="node20" class="node">
<title>[root] root</title>
<ellipse fill="none" stroke="black" cx="499.62" cy="-450" rx="62.78" ry="18"/>
<text text-anchor="middle" x="499.62" y="-445.32" font-family="Times,serif" font-size="14.00">[root] root</text>
</g>
<!-- [root] root&#45;&gt;[root] var.private_subnet_cidr -->
<g id="edge27" class="edge">
<title>[root] root&#45;&gt;[root] var.private_subnet_cidr</title>
<path fill="none" stroke="black" d="M446.7,-439.92C383.07,-429 274.82,-410.43 194.53,-396.66"/>
<polygon fill="black" stroke="black" points="195.34,-393.24 184.89,-395 194.15,-400.14 195.34,-393.24"/>
</g>
<!-- [root] root&#45;&gt;[root] var.public_subnet_cidr -->
<g id="edge28" class="edge">
<title>[root] root&#45;&gt;[root] var.public_subnet_cidr</title>
<path fill="none" stroke="black" d="M459.63,-435.67C429.33,-425.57 387.11,-411.5 352.33,-399.9"/>
<polygon fill="black" stroke="black" points="353.82,-396.71 343.23,-396.87 351.61,-403.35 353.82,-396.71"/>
</g>
<!-- [root] root&#45;&gt;[root] output.ec2_public_ip (expand) -->
<g id="edge25" class="edge">
<title>[root] root&#45;&gt;[root] output.ec2_public_ip (expand)</title>
<path fill="none" stroke="black" d="M558.61,-443.39C673.65,-432.45 930.88,-407.98 1093.07,-392.56"/>
<polygon fill="black" stroke="black" points="1092.96,-396.08 1102.59,-391.65 1092.3,-389.12 1092.96,-396.08"/>
</g>
<!-- [root] root&#45;&gt;[root] provider[&quot;registry.terraform.io/hashicorp/aws&quot;] (close) -->
<g id="edge26" class="edge">
<title>[root] root&#45;&gt;[root] provider[&quot;registry.terraform.io/hashicorp/aws&quot;] (close)</title>
<path fill="none" stroke="black" d="M539.31,-435.83C569.93,-425.68 612.86,-411.43 648.08,-399.75"/>
<polygon fill="black" stroke="black" points="648.92,-403.16 657.31,-396.69 646.71,-396.51 648.92,-403.16"/>
</g>
</g>
</svg>
